<?xml version="1.0" encoding="utf-8"?>
<!-- Generator: Adobe Illustrator 23.0.0, SVG Export Plug-In . SVG Version: 6.00 Build 0)  -->
<svg version="1.1" id="Calque_1" xmlns="http://www.w3.org/2000/svg" xmlns:xlink="http://www.w3.org/1999/xlink" x="0px" y="0px"
	 viewBox="0 0 50 50" style="enable-background:new 0 0 50 50;" xml:space="preserve">
<style type="text/css">
	.st0{fill:#007AB5;}
	.st1{fill:#FFFFFF;}
</style>
<g>
	<circle class="st0" cx="25" cy="25" r="25"/>
	<path class="st1" d="M14.3,19.8h5.1v16.3h-5.1V19.8z M16.8,11.7c1.6,0,2.9,1.3,2.9,2.9c0,1.6-1.3,2.9-2.9,2.9
		c-1.6,0-2.9-1.3-2.9-2.9C13.9,13,15.2,11.7,16.8,11.7"/>
	<path class="st1" d="M22.6,19.8h4.9V22h0.1c0.7-1.3,2.3-2.6,4.8-2.6c5.1,0,6.1,3.4,6.1,7.8v8.9h-5.1v-7.9c0-1.9,0-4.3-2.6-4.3
		c-2.6,0-3,2.1-3,4.2v8.1h-5.1V19.8z"/>
</g>
</svg>
